<svg data-name="027_APPLIANCES" viewBox="0 0 24 24" xmlns="http://www.w3.org/2000/svg"><path d="M19 18H5a3 3 0 0 1-3-3V5a3 3 0 0 1 3-3h14a3 3 0 0 1 3 3v4.57a1 1 0 0 1-2 0V5a1 1 0 0 0-1-1H5a1 1 0 0 0-1 1v10a1 1 0 0 0 1 1h14a1 1 0 0 0 1-1v-1.93a1 1 0 0 1 2 0V15a3 3 0 0 1-3 3Z" fill="#ffffff" class="fill-333333"></path><path d="M17 8h-.2a.64.64 0 0 1-.18-.06.56.56 0 0 1-.17-.09 1 1 0 0 1-.16-.12 1 1 0 0 1 0-1.42 1 1 0 0 1 .16-.12.56.56 0 0 1 .17-.09.64.64 0 0 1 .18-.1 1 1 0 0 1 .91.27A1 1 0 0 1 17 8ZM10 14.3a1 1 0 0 1-1-1v-4a1 1 0 0 1 2 0v4a1 1 0 0 1-1 1Z" fill="#ffffff" class="fill-333333"></path><path d="M10 10.3a1 1 0 0 1-.5-.13l-3.5-2a1 1 0 0 1 1-1.74l3.46 2A1 1 0 0 1 10 10.3Z" fill="#ffffff" class="fill-333333"></path><path d="M10 10.3a1 1 0 0 1-.5-1.87l3.46-2a1 1 0 0 1 1 1.74l-3.46 2a1 1 0 0 1-.5.13ZM21 22h-7a3 3 0 0 1-3-3v-2a1 1 0 0 1 2 0v2a1 1 0 0 0 1 1h7a1 1 0 0 1 0 2Z" fill="#ffffff" class="fill-333333"></path></svg>