<svg viewBox="0 0 32 32" xml:space="preserve" xmlns="http://www.w3.org/2000/svg" fill-rule="evenodd" clip-rule="evenodd" stroke-linejoin="round" stroke-miterlimit="2"><path d="M15.003 23.026h-2.994a3 3 0 0 0-3 3v1.949a3 3 0 0 0 3 3h7.993a3 3 0 0 0 3-3v-1.949a3 3 0 0 0-3-3h-2.999L16.992 15H28a.999.999 0 0 0 .781-1.624L25.28 8.994l3.501-4.382A1 1 0 0 0 28 2.988H16.974l-.001-1.006a1.001 1.001 0 0 0-2 .003l.03 21.041Zm5.999 3v1.949a1 1 0 0 1-1 1h-7.993a1 1 0 0 1-1-1v-1.949a1 1 0 0 1 1-1h7.993a1 1 0 0 1 1 1ZM16.989 13h8.932l-2.702-3.382a.998.998 0 0 1 0-1.248l2.702-3.382h-8.944L16.989 13Z" fill="#ffffff" class="fill-000000"></path></svg>