<svg viewBox="0 0 54.16 31.08" xmlns="http://www.w3.org/2000/svg"><g data-name="Layer 2"><path d="M52.82 16.45h-1.07C50.9 3.14 35.34-4.57 24.23 3A6.73 6.73 0 0 0 12 6.19 11.74 11.74 0 0 0 2 16.45h-.65A1.34 1.34 0 0 0 0 17.8a13.3 13.3 0 0 0 13.28 13.28h27.6A13.29 13.29 0 0 0 54.16 17.8a1.34 1.34 0 0 0-1.34-1.35Zm-3.77 0H45.9C44.59 5 29.5 1.58 23.41 11.36a11.22 11.22 0 0 0-1.82-2.14c8.07-11.56 26.16-6.75 27.46 7.23Zm-8.76 0a6.66 6.66 0 0 0-13 0h-2a11.48 11.48 0 0 0-.38-1.94c3.48-9.22 16.85-7.73 18.31 1.94Zm-2.8 0h-7.42a4 4 0 0 1 7.42 0ZM18.68 2.7a4 4 0 0 1 3.41 1.9 17.4 17.4 0 0 0-2.67 3 11.72 11.72 0 0 0-4.71-1.49 4 4 0 0 1 3.97-3.41Zm-5.3 6.08a9.06 9.06 0 0 1 9.15 7.67h-2.65a6.42 6.42 0 0 0-12.54 0H4.69a9 9 0 0 1 8.69-7.67Zm3.7 7.67h-6.94a3.74 3.74 0 0 1 6.94 0Zm23.8 11.93h-27.6a10.6 10.6 0 0 1-10.5-9.23h48.6a10.59 10.59 0 0 1-10.5 9.23Z" data-name="Layer 1" fill="#ffffff" class="fill-353535"></path></g></svg>