<svg viewBox="0 0 32 32" xml:space="preserve" xmlns="http://www.w3.org/2000/svg" fill-rule="evenodd" clip-rule="evenodd" stroke-linejoin="round" stroke-miterlimit="2"><path d="M14.5 14.002V25h-1.317l-6.025-5.098a1.5 1.5 0 0 0-1.155-.344l-1.279.16a1.501 1.501 0 0 0-.774 2.641L7.119 25h-2.62C3.671 25 3 25.671 3 26.499v.001A1.5 1.5 0 0 0 4.5 28H5v1.5a.5.5 0 0 0 .5.5h3a.5.5 0 0 0 .5-.5V28h13v1.5a.5.5 0 0 0 .5.5h3a.5.5 0 0 0 .5-.5V28h1.5a1.5 1.5 0 0 0 1.5-1.5v-.001c0-.828-.671-1.499-1.499-1.499H23v-2h3.5s.5-.044.5-.515V21.5a1.5 1.5 0 0 0-1.5-1.5H18c-.175 0-.344.03-.5.085v-6.084L19.383 14c.567 0 1.086-.321 1.341-.828L21 12.62l.276.553a1.5 1.5 0 0 0 1.342.829L27.883 14a1.5 1.5 0 0 0 1.34-.828l.722-1.441a.477.477 0 0 0 .041-.111l.001-.005a.49.49 0 0 0 .013-.12c-.002-1.904-1.025-3.678-2.792-5.106-2.437-1.971-6.312-3.29-10.708-3.384V2.5a.5.5 0 0 0-1 0v.505c-4.396.094-8.271 1.413-10.708 3.384C3.025 7.817 2.002 9.591 2 11.496l.008.093a.491.491 0 0 0 .05.147l.718 1.437a1.5 1.5 0 0 0 1.342.829L9.383 14a1.5 1.5 0 0 0 1.34-.828L11 12.62l.276.553a1.5 1.5 0 0 0 1.342.829H14.5ZM8 28v1H6v-1h2Zm17 0v1h-2v-1h2Zm2.501-2H4.499a.498.498 0 0 0-.499.499v.001a.5.5 0 0 0 .5.5h23a.5.5 0 1 0 .001-1Zm-15.866-1H8.681L4.59 21.591a.5.5 0 0 1 .258-.881l1.279-.159a.498.498 0 0 1 .385.114L11.635 25ZM16.5 14.001V25h-1V14.001h1Zm1 8.999v2H20v-2h-2.5Zm3.5 2v-2h1v2h-1Zm-3.5-3H26v-.5a.5.5 0 0 0-.5-.5H18a.5.5 0 0 0-.5.5v.5Zm-4.882-8.998L19.382 13c.19 0 .363-.107.447-.276l.362-.723-8.382.001.362.724a.5.5 0 0 0 .447.276Zm-2.427-1H3.309l.362.724a.5.5 0 0 0 .447.276L9.382 13c.19 0 .363-.107.447-.276l.362-.722ZM28.692 12l-6.884.001.363.725a.5.5 0 0 0 .447.276L27.882 13c.19 0 .363-.107.447-.276l.363-.724ZM13.19 4.177c-3.17.407-5.914 1.489-7.77 2.989-1.351 1.093-2.225 2.405-2.391 3.836h7.48c.096-2.579.932-4.844 2.158-6.282.168-.196.342-.377.523-.543ZM16 4c-.965 0-1.848.52-2.572 1.369-1.099 1.29-1.826 3.323-1.918 5.633l8.98-.001c-.092-2.309-.819-4.342-1.918-5.632C17.848 4.52 16.965 4 16 4Zm2.809.177c.182.166.356.347.524.544 1.225 1.438 2.061 3.701 2.158 6.28l7.48-.001c-.167-1.431-1.04-2.741-2.391-3.834-1.856-1.5-4.601-2.582-7.771-2.989Z" fill="#ffffff" class="fill-000000"></path></svg>